<mxfile host="app.diagrams.net" modified="2022-09-18T08:48:41.155Z" agent="5.0 (Windows NT 10.0; Win64; x64) AppleWebKit/537.36 (KHTML, like Gecko) Chrome/105.0.0.0 Safari/537.36" etag="i3Zo1ds6ryWEOowCaL4M" version="20.3.2" type="github">
  <diagram id="RJcDUeuX0BSYA9FjCcLh" name="Page-1">
    <mxGraphModel dx="1504" dy="634" grid="1" gridSize="10" guides="1" tooltips="1" connect="1" arrows="1" fold="1" page="1" pageScale="1" pageWidth="827" pageHeight="1169" math="0" shadow="0">
      <root>
        <mxCell id="0" />
        <mxCell id="1" parent="0" />
        <mxCell id="8GAd6-cde557Hzw2YsLj-1" value="Costumer" style="shape=umlActor;verticalLabelPosition=bottom;verticalAlign=top;html=1;outlineConnect=0;fillColor=#FFFFCC;" vertex="1" parent="1">
          <mxGeometry x="23" y="310" width="30" height="60" as="geometry" />
        </mxCell>
        <mxCell id="8GAd6-cde557Hzw2YsLj-21" value="" style="rounded=0;whiteSpace=wrap;html=1;fillColor=#FFFFFF;" vertex="1" parent="1">
          <mxGeometry x="127" y="20" width="610" height="730" as="geometry" />
        </mxCell>
        <mxCell id="8GAd6-cde557Hzw2YsLj-2" value="browse product" style="ellipse;whiteSpace=wrap;html=1;fillColor=#FFFFCC;" vertex="1" parent="1">
          <mxGeometry x="172" y="89" width="120" height="60" as="geometry" />
        </mxCell>
        <mxCell id="8GAd6-cde557Hzw2YsLj-3" value="order product" style="ellipse;whiteSpace=wrap;html=1;fillColor=#FFFFCC;" vertex="1" parent="1">
          <mxGeometry x="172" y="200" width="120" height="60" as="geometry" />
        </mxCell>
        <mxCell id="8GAd6-cde557Hzw2YsLj-4" value="customer info" style="ellipse;whiteSpace=wrap;html=1;fillColor=#FFFFCC;" vertex="1" parent="1">
          <mxGeometry x="172" y="310" width="120" height="60" as="geometry" />
        </mxCell>
        <mxCell id="8GAd6-cde557Hzw2YsLj-5" value="confirm shipment" style="ellipse;whiteSpace=wrap;html=1;fillColor=#FFFFCC;" vertex="1" parent="1">
          <mxGeometry x="172" y="420" width="120" height="60" as="geometry" />
        </mxCell>
        <mxCell id="8GAd6-cde557Hzw2YsLj-7" value="login/register" style="ellipse;whiteSpace=wrap;html=1;fillColor=#FFFFCC;" vertex="1" parent="1">
          <mxGeometry x="372" y="43.5" width="120" height="60" as="geometry" />
        </mxCell>
        <mxCell id="8GAd6-cde557Hzw2YsLj-8" value="add to cart" style="ellipse;whiteSpace=wrap;html=1;fillColor=#FFFFCC;" vertex="1" parent="1">
          <mxGeometry x="372" y="134.5" width="120" height="60" as="geometry" />
        </mxCell>
        <mxCell id="8GAd6-cde557Hzw2YsLj-9" value="cancel order" style="ellipse;whiteSpace=wrap;html=1;fillColor=#FFFFCC;" vertex="1" parent="1">
          <mxGeometry x="372" y="230" width="120" height="60" as="geometry" />
        </mxCell>
        <mxCell id="8GAd6-cde557Hzw2YsLj-11" value="payment" style="ellipse;whiteSpace=wrap;html=1;fillColor=#FFFFCC;" vertex="1" parent="1">
          <mxGeometry x="172" y="538" width="120" height="60" as="geometry" />
        </mxCell>
        <mxCell id="8GAd6-cde557Hzw2YsLj-13" value="debit card" style="ellipse;whiteSpace=wrap;html=1;fillColor=#FFFFCC;" vertex="1" parent="1">
          <mxGeometry x="372" y="490" width="120" height="60" as="geometry" />
        </mxCell>
        <mxCell id="8GAd6-cde557Hzw2YsLj-14" value="credit card" style="ellipse;whiteSpace=wrap;html=1;fillColor=#FFFFCC;" vertex="1" parent="1">
          <mxGeometry x="372" y="570" width="120" height="60" as="geometry" />
        </mxCell>
        <mxCell id="8GAd6-cde557Hzw2YsLj-15" value="cash on delivery" style="ellipse;whiteSpace=wrap;html=1;fillColor=#FFFFCC;" vertex="1" parent="1">
          <mxGeometry x="372" y="650" width="120" height="60" as="geometry" />
        </mxCell>
        <mxCell id="8GAd6-cde557Hzw2YsLj-16" value="manage records" style="ellipse;whiteSpace=wrap;html=1;fillColor=#FFFFCC;" vertex="1" parent="1">
          <mxGeometry x="573" y="240" width="120" height="60" as="geometry" />
        </mxCell>
        <mxCell id="8GAd6-cde557Hzw2YsLj-17" value="update records" style="ellipse;whiteSpace=wrap;html=1;fillColor=#FFFFCC;" vertex="1" parent="1">
          <mxGeometry x="513" y="330" width="120" height="60" as="geometry" />
        </mxCell>
        <mxCell id="8GAd6-cde557Hzw2YsLj-18" value="Admin" style="shape=umlActor;verticalLabelPosition=bottom;verticalAlign=top;html=1;outlineConnect=0;fillColor=#FFFFCC;direction=east;" vertex="1" parent="1">
          <mxGeometry x="769" y="320" width="30" height="60" as="geometry" />
        </mxCell>
        <mxCell id="8GAd6-cde557Hzw2YsLj-30" value="&amp;lt;&amp;lt;includes&amp;gt;&amp;gt;" style="endArrow=open;endSize=12;dashed=1;html=1;rounded=0;exitX=0.943;exitY=0.283;exitDx=0;exitDy=0;exitPerimeter=0;entryX=0;entryY=0.5;entryDx=0;entryDy=0;" edge="1" parent="1" source="8GAd6-cde557Hzw2YsLj-11" target="8GAd6-cde557Hzw2YsLj-13">
          <mxGeometry y="9" width="160" relative="1" as="geometry">
            <mxPoint x="850" y="368.57" as="sourcePoint" />
            <mxPoint x="1010" y="368.57" as="targetPoint" />
            <Array as="points" />
            <mxPoint as="offset" />
          </mxGeometry>
        </mxCell>
        <mxCell id="8GAd6-cde557Hzw2YsLj-33" value="&amp;lt;&amp;lt;includes&amp;gt;&amp;gt;" style="endArrow=open;endSize=12;dashed=1;html=1;rounded=0;exitX=0.95;exitY=0.287;exitDx=0;exitDy=0;exitPerimeter=0;entryX=0;entryY=0.5;entryDx=0;entryDy=0;" edge="1" parent="1" source="8GAd6-cde557Hzw2YsLj-2" target="8GAd6-cde557Hzw2YsLj-7">
          <mxGeometry y="9" width="160" relative="1" as="geometry">
            <mxPoint x="870" y="439.99999999999994" as="sourcePoint" />
            <mxPoint x="1030" y="439.99999999999994" as="targetPoint" />
            <Array as="points" />
            <mxPoint as="offset" />
          </mxGeometry>
        </mxCell>
        <mxCell id="8GAd6-cde557Hzw2YsLj-34" value="&amp;lt;&amp;lt;includes&amp;gt;&amp;gt;" style="endArrow=open;endSize=12;dashed=1;html=1;rounded=0;exitX=1;exitY=1;exitDx=0;exitDy=0;entryX=0;entryY=0.5;entryDx=0;entryDy=0;" edge="1" parent="1" source="8GAd6-cde557Hzw2YsLj-11" target="8GAd6-cde557Hzw2YsLj-15">
          <mxGeometry y="9" width="160" relative="1" as="geometry">
            <mxPoint x="930" y="229.99999999999994" as="sourcePoint" />
            <mxPoint x="1090" y="229.99999999999994" as="targetPoint" />
            <Array as="points" />
            <mxPoint as="offset" />
          </mxGeometry>
        </mxCell>
        <mxCell id="8GAd6-cde557Hzw2YsLj-35" value="&amp;lt;&amp;lt;includes&amp;gt;&amp;gt;" style="endArrow=open;endSize=12;dashed=1;html=1;rounded=0;exitX=1;exitY=0.5;exitDx=0;exitDy=0;entryX=0;entryY=0.5;entryDx=0;entryDy=0;" edge="1" parent="1" source="8GAd6-cde557Hzw2YsLj-11" target="8GAd6-cde557Hzw2YsLj-14">
          <mxGeometry y="9" width="160" relative="1" as="geometry">
            <mxPoint x="960" y="274.68999999999994" as="sourcePoint" />
            <mxPoint x="1120" y="274.68999999999994" as="targetPoint" />
            <Array as="points" />
            <mxPoint as="offset" />
          </mxGeometry>
        </mxCell>
        <mxCell id="8GAd6-cde557Hzw2YsLj-36" value="&amp;lt;&amp;lt;extends&amp;gt;&amp;gt;" style="endArrow=open;endSize=12;dashed=1;html=1;rounded=0;entryX=1;entryY=0.5;entryDx=0;entryDy=0;exitX=0;exitY=0.5;exitDx=0;exitDy=0;" edge="1" parent="1" source="8GAd6-cde557Hzw2YsLj-9" target="8GAd6-cde557Hzw2YsLj-3">
          <mxGeometry y="10" width="160" relative="1" as="geometry">
            <mxPoint x="890" y="420" as="sourcePoint" />
            <mxPoint x="1050" y="420" as="targetPoint" />
            <mxPoint as="offset" />
          </mxGeometry>
        </mxCell>
        <mxCell id="8GAd6-cde557Hzw2YsLj-37" value="&amp;lt;&amp;lt;includes&amp;gt;&amp;gt;" style="endArrow=open;endSize=12;dashed=1;html=1;rounded=0;exitX=0;exitY=1;exitDx=0;exitDy=0;" edge="1" parent="1" source="8GAd6-cde557Hzw2YsLj-16" target="8GAd6-cde557Hzw2YsLj-17">
          <mxGeometry y="9" width="160" relative="1" as="geometry">
            <mxPoint x="296" y="116.21999999999991" as="sourcePoint" />
            <mxPoint x="382" y="83.5" as="targetPoint" />
            <Array as="points" />
            <mxPoint as="offset" />
          </mxGeometry>
        </mxCell>
        <mxCell id="8GAd6-cde557Hzw2YsLj-38" value="" style="endArrow=none;html=1;rounded=0;entryX=1;entryY=0.5;entryDx=0;entryDy=0;" edge="1" parent="1" target="8GAd6-cde557Hzw2YsLj-16">
          <mxGeometry width="50" height="50" relative="1" as="geometry">
            <mxPoint x="770" y="330" as="sourcePoint" />
            <mxPoint x="700" y="280" as="targetPoint" />
          </mxGeometry>
        </mxCell>
        <mxCell id="8GAd6-cde557Hzw2YsLj-39" value="" style="endArrow=none;html=1;rounded=0;exitX=0.5;exitY=0;exitDx=0;exitDy=0;" edge="1" parent="1" source="8GAd6-cde557Hzw2YsLj-11">
          <mxGeometry width="50" height="50" relative="1" as="geometry">
            <mxPoint x="740" y="310" as="sourcePoint" />
            <mxPoint x="760" y="360" as="targetPoint" />
          </mxGeometry>
        </mxCell>
        <mxCell id="8GAd6-cde557Hzw2YsLj-41" value="" style="endArrow=none;html=1;rounded=0;exitX=1;exitY=1;exitDx=0;exitDy=0;entryX=0;entryY=0.5;entryDx=0;entryDy=0;" edge="1" parent="1" source="8GAd6-cde557Hzw2YsLj-2" target="8GAd6-cde557Hzw2YsLj-8">
          <mxGeometry width="50" height="50" relative="1" as="geometry">
            <mxPoint x="550" y="450" as="sourcePoint" />
            <mxPoint x="600" y="400" as="targetPoint" />
          </mxGeometry>
        </mxCell>
        <mxCell id="8GAd6-cde557Hzw2YsLj-42" value="" style="endArrow=none;html=1;rounded=0;entryX=0;entryY=0.5;entryDx=0;entryDy=0;" edge="1" parent="1" target="8GAd6-cde557Hzw2YsLj-2">
          <mxGeometry width="50" height="50" relative="1" as="geometry">
            <mxPoint x="50" y="300" as="sourcePoint" />
            <mxPoint x="600" y="230" as="targetPoint" />
          </mxGeometry>
        </mxCell>
        <mxCell id="8GAd6-cde557Hzw2YsLj-43" value="" style="endArrow=none;html=1;rounded=0;entryX=0;entryY=0.5;entryDx=0;entryDy=0;" edge="1" parent="1" target="8GAd6-cde557Hzw2YsLj-3">
          <mxGeometry width="50" height="50" relative="1" as="geometry">
            <mxPoint x="60" y="320" as="sourcePoint" />
            <mxPoint x="360" y="220" as="targetPoint" />
          </mxGeometry>
        </mxCell>
        <mxCell id="8GAd6-cde557Hzw2YsLj-44" value="" style="endArrow=none;html=1;rounded=0;entryX=0;entryY=0.5;entryDx=0;entryDy=0;" edge="1" parent="1" target="8GAd6-cde557Hzw2YsLj-4">
          <mxGeometry width="50" height="50" relative="1" as="geometry">
            <mxPoint x="60" y="340" as="sourcePoint" />
            <mxPoint x="360" y="220" as="targetPoint" />
          </mxGeometry>
        </mxCell>
        <mxCell id="8GAd6-cde557Hzw2YsLj-45" value="" style="endArrow=none;html=1;rounded=0;entryX=0;entryY=0.5;entryDx=0;entryDy=0;" edge="1" parent="1" target="8GAd6-cde557Hzw2YsLj-5">
          <mxGeometry width="50" height="50" relative="1" as="geometry">
            <mxPoint x="60" y="370" as="sourcePoint" />
            <mxPoint x="300" y="380" as="targetPoint" />
          </mxGeometry>
        </mxCell>
        <mxCell id="8GAd6-cde557Hzw2YsLj-46" value="" style="endArrow=none;html=1;rounded=0;entryX=0;entryY=0.5;entryDx=0;entryDy=0;" edge="1" parent="1" target="8GAd6-cde557Hzw2YsLj-11">
          <mxGeometry width="50" height="50" relative="1" as="geometry">
            <mxPoint x="60" y="410" as="sourcePoint" />
            <mxPoint x="300" y="380" as="targetPoint" />
          </mxGeometry>
        </mxCell>
      </root>
    </mxGraphModel>
  </diagram>
</mxfile>
